<?xml version="1.0" encoding="UTF-8" standalone="no"?>
<!DOCTYPE svg PUBLIC "-//W3C//DTD SVG 1.1//EN" "http://www.w3.org/Graphics/SVG/1.1/DTD/svg11.dtd">
<svg xmlns="http://www.w3.org/2000/svg" xmlns:xlink="http://www.w3.org/1999/xlink" version="1.1" width="426.027pt" height="197.525pt" viewBox="0 0 426.027 197.525">
<clipPath id="cp0">
<path transform="matrix(1,0,0,-1,28.359,184.269)" d="M 0 0 L 387.16703 0 L 387.16703 171.16819 L 0 171.16819 Z "/>
</clipPath>
<g clip-path="url(#cp0)">
<path transform="matrix(1,0,0,-1,28.359,184.269)" d="M 64.52783 15.75757 L 75.28241 16.48582 L 86.037 17.74702 L 96.7916 19.5334 L 107.54619 21.83173 L 118.30078 24.62488 L 129.05538 27.89807 L 139.80997 31.62486 L 150.56456 35.77959 L 161.31917 40.33034 L 172.07376 45.25609 L 182.82836 50.5125 L 193.58295 56.06535 L 204.33754 61.87651 L 215.09214 67.90865 L 225.84673 74.11737 L 236.60132 80.45837 L 247.35591 86.88963 L 258.1105 93.36446 L 268.8651 99.83928 L 279.6197 106.26898 L 290.37428 112.60999 L 301.12889 118.82027 L 311.88349 124.85005 L 322.6381 130.66278 L 322.6381 0 L 64.52783 0 Z " fill="#cccce6"/>
<path transform="matrix(1,0,0,-1,28.359,184.269)" stroke-width="1.59404" stroke-linecap="butt" stroke-miterlimit="10" stroke-linejoin="miter" fill="none" stroke="#000080" d="M 0 22.6222 C 0 22.6222 11.6554 19.94308 16.13196 19.1366 C 20.6085 18.3301 27.78735 17.28943 32.26392 16.8095 C 36.74046 16.32954 43.91931 15.82338 48.39587 15.67744 C 52.87242 15.53151 60.05127 15.56705 64.52783 15.75757 C 69.0044 15.9481 76.18323 16.52681 80.65979 17.05069 C 85.13635 17.57455 92.31519 18.68457 96.79175 19.5334 C 101.26831 20.38222 108.44716 22.00781 112.9237 23.16838 C 117.40027 24.32896 124.57912 26.44376 129.05567 27.89807 C 133.53223 29.35239 140.71108 31.92516 145.18762 33.6501 C 149.66419 35.37506 156.84304 38.361 161.31958 40.33034 C 165.79615 42.29968 172.97499 45.66064 177.45156 47.84384 C 181.9281 50.02704 189.10695 53.70306 193.58351 56.06535 C 198.06006 58.42766 205.2389 62.36496 209.71547 64.86963 C 214.19202 67.37431 221.37087 71.50949 225.84743 74.11737 C 230.32398 76.72527 237.50283 80.99496 241.97939 83.66545 C 246.45595 86.33594 253.63478 90.67303 258.11134 93.36446 C 262.5879 96.0559 269.76676 100.39297 274.2433 103.06346 C 278.71986 105.73395 285.8987 110.00365 290.37528 112.61154 C 294.8518 115.21942 302.03068 119.3546 306.50724 121.85928 C 310.9838 124.36395 318.16264 128.30126 322.6392 130.66355 C 327.11576 133.02585 334.2946 136.70188 338.77113 138.88507 C 343.2477 141.06827 350.42655 144.42922 354.9031 146.39858 C 359.37965 148.36792 366.5585 151.35387 371.03507 153.07883 C 375.5116 154.80377 387.16703 158.83084 387.16703 158.83084 "/>
<path transform="matrix(1,0,0,-1,28.359,184.269)" stroke-width="1" stroke-linecap="butt" stroke-dasharray="2.98883,2.98883" stroke-miterlimit="10" stroke-linejoin="miter" fill="none" stroke="#000000" d="M 0 130.63243 L 322.6392 130.63243 "/>
<path transform="matrix(1,0,0,-1,28.359,184.269)" stroke-width="1" stroke-linecap="butt" stroke-dasharray="2.98883,2.98883" stroke-miterlimit="10" stroke-linejoin="miter" fill="none" stroke="#000000" d="M 0 15.79414 L 64.52783 15.79414 "/>
<path transform="matrix(1,0,0,-1,28.359,184.269)" stroke-width="1" stroke-linecap="butt" stroke-miterlimit="10" stroke-linejoin="miter" fill="none" stroke="#000000" d="M 64.52783 0 L 64.52783 15.79414 "/>
<symbol id="font_1_1">
<path d="M .265 .32500003 L .362 .32500003 C .43700005 .32500003 .445 .30900003 .445 .28 C .445 .273 .445 .261 .43800003 .231 C .43600006 .22600001 .435 .22200002 .435 .22000002 C .435 .21200001 .44100005 .208 .44700004 .208 C .45700003 .208 .45700003 .21100001 .462 .22900002 L .517 .446 C .52000007 .45700003 .52000007 .45900003 .52000007 .462 C .52000007 .46400003 .51800009 .47300003 .508 .47300003 C .49800004 .47300003 .49700005 .46800003 .49300004 .45200003 C .47200007 .374 .449 .356 .36400003 .356 L .273 .356 L .337 .61 C .34600003 .64500007 .347 .64900007 .39100004 .64900007 L .52300009 .64900007 C .646 .64900007 .669 .61600008 .669 .53900006 C .669 .51600006 .669 .512 .66600009 .485 C .66400006 .47200004 .66400006 .47000004 .66400006 .467 C .66400006 .462 .66700008 .455 .67600008 .455 C .68700006 .455 .688 .46100004 .69000008 .48000003 L .71000006 .65300008 C .71300008 .68 .70800009 .68 .683 .68 L .193 .68 C .17300001 .68 .163 .68 .163 .66 C .163 .64900007 .172 .64900007 .19100002 .64900007 C .228 .64900007 .25599999 .64900007 .25599999 .63100007 C .25599999 .62700006 .25599999 .625 .251 .60700008 L .119 .078 C .109 .039 .10700001 .031000002 .027999998 .031000002 C .011 .031000002 0 .031000002 0 .012 C 0 0 .011999998 0 .015000001 0 C .044 0 .118 .003 .147 .003 C .18 .003 .263 0 .296 0 C .305 0 .31700004 0 .31700004 .019000002 C .31700004 .027 .311 .029000001 .311 .030000002 C .30800004 .031000002 .306 .031000002 .283 .031000002 C .26100005 .031000002 .25599999 .031000002 .23100002 .033 C .202 .036000004 .19900002 .040000004 .19900002 .053000004 C .19900002 .055000005 .19900002 .061000006 .20300001 .076000008 L .265 .32500003 Z "/>
</symbol>
<use xlink:href="#font_1_1" transform="matrix(9.9626,0,0,-9.9626,208.68158,163.44)"/>
<symbol id="font_2_1">
<path d="M .23200003 .00999999 C .23200003 .012999982 .23200003 .014999986 .215 .03199999 C .09 .15799999 .058 .347 .058 .5 C .058 .674 .096 .84800007 .21900001 .97300007 C .23200003 .985 .23200003 .98700007 .23200003 .99 C .23200003 .99700006 .22800002 1 .222 1 C .21200001 1 .12200001 .93200007 .06299999 .805 C .012000002 .69500008 0 .584 0 .5 C 0 .422 .011 .301 .066 .188 C .126 .065 .21200001 0 .222 0 C .22800002 0 .23200003 .0029999912 .23200003 .00999999 Z "/>
</symbol>
<use xlink:href="#font_2_1" transform="matrix(9.9626,0,0,-9.9626,217.07929,165.93065)"/>
<symbol id="font_1_6">
<path d="M .305 .31300003 C .311 .33900003 .334 .43100003 .404 .43100003 C .409 .43100003 .433 .43100003 .454 .418 C .426 .41300003 .40600003 .388 .40600003 .36400003 C .40600003 .34800003 .417 .32900004 .444 .32900004 C .46600003 .32900004 .498 .34700004 .498 .38700003 C .498 .43900005 .439 .45300005 .405 .45300005 C .347 .45300005 .312 .40000005 .3 .37700004 C .275 .44300003 .221 .45300005 .19200002 .45300005 C .08800001 .45300005 .031000002 .32400004 .031000002 .29900003 C .031000002 .28900004 .041 .28900004 .043000007 .28900004 C .051000008 .28900004 .054000006 .291 .056 .3 C .09 .40600003 .156 .43100003 .19000001 .43100003 C .209 .43100003 .244 .42200003 .244 .36400003 C .244 .33300004 .22700002 .26600004 .19000001 .126 C .17400001 .064 .13900002 .022000002 .095000009 .022000002 C .08900001 .022000002 .06600001 .022000002 .045 .035 C .07000001 .040000004 .09200001 .061 .09200001 .089 C .09200001 .116000007 .07000001 .124000009 .055000009 .124000009 C .025 .124000009 0 .098000008 0 .06600001 C 0 .020000002 .050000006 0 .094000007 0 C .16000001 0 .19600001 .07000001 .19900002 .076000008 C .21100001 .039 .24700003 0 .307 0 C .41 0 .467 .12900001 .467 .15400002 C .467 .16400002 .458 .16400002 .455 .16400002 C .446 .16400002 .444 .16000001 .442 .15300001 C .409 .046 .341 .022000002 .30900003 .022000002 C .27 .022000002 .254 .054 .254 .08800001 C .254 .11000001 .26 .13200002 .271 .17600002 L .305 .31300003 Z "/>
</symbol>
<use xlink:href="#font_1_6" transform="matrix(9.9626,0,0,-9.9626,220.2569,163.54959)"/>
<symbol id="font_2_2">
<path d="M .232 .5 C .232 .578 .22100002 .699 .16600001 .81200006 C .106 .93500009 .020000004 1 .009999998 1 C .0040000008 1 0 .99600008 0 .99 C 0 .98700007 0 .985 .019000002 .967 C .117000009 .86800006 .174 .709 .174 .5 C .174 .329 .137 .153 .012999997 .026999996 C 0 .014999986 0 .012999982 0 .00999999 C 0 .003999993 .0040000008 0 .009999998 0 C .020000004 0 .11000001 .06799999 .169 .195 C .22 .305 .232 .416 .232 .5 Z "/>
</symbol>
<symbol id="font_2_3">
<path d="M .63100007 .19400002 C .646 .19400002 .665 .19400002 .665 .214 C .665 .23400001 .646 .23400001 .632 .23400001 L .033 .23400001 C .019000002 .23400001 0 .23400001 0 .214 C 0 .19400002 .019000002 .19400002 .034 .19400002 L .63100007 .19400002 M .632 0 C .646 0 .665 0 .665 .02000001 C .665 .040000008 .646 .040000008 .63100007 .040000008 L .034 .040000008 C .019000002 .040000008 0 .040000008 0 .02000001 C 0 0 .019000002 0 .033 0 L .632 0 Z "/>
</symbol>
<use xlink:href="#font_2_2" transform="matrix(9.9626,0,0,-9.9626,226.22986,165.93065)"/>
<use xlink:href="#font_2_3" transform="matrix(9.9626,0,0,-9.9626,232.86496,162.11498)"/>
<symbol id="font_3_1">
<path d="M .057000005 .05099988 C .065000008 .05099988 .073 .052999975 .08 .055999996 C .132 .08099985 .09900001 .16699982 .04 .14499998 C 0 .1309998 .003999997 .08099985 .023000002 .051999809 C .047 .015999794 .096 0 .13700001 .0059998037 C .18800001 .0149998669 .222 .058999778 .24600002 .10099983 C .29900003 .194 .324 .30299986 .35000003 .4059999 C .41500003 .6639999 .47300006 .9239999 .523 1.185 C .57100006 1.433 .605 1.686 .66 1.927 C .675 1.99 .69000008 2.053 .71400007 2.113 C .72300007 2.137 .734 2.161 .75000008 2.181 C .758 2.191 .768 2.201 .78000006 2.204 C .794 2.208 .81200006 2.203 .82500007 2.197 C .83400008 2.193 .84300008 2.188 .85 2.181 C .84200009 2.181 .83400008 2.179 .827 2.1759999 C .77500006 2.151 .808 2.065 .86700007 2.087 C .90700009 2.101 .90300008 2.151 .88400009 2.18 C .86 2.216 .81100007 2.232 .77000007 2.226 C .71900007 2.217 .685 2.173 .661 2.131 C .60800006 2.038 .583 1.929 .55700007 1.826 C .49200005 1.568 .43400003 1.308 .384 1.0469999 C .33600004 .7989999 .30200003 .5459999 .24700001 .30499996 C .23200003 .24199987 .21700001 .1789999 .193 .11899996 C .184 .09499979 .17300001 .07099986 .157 .05099988 C .149 .04099989 .139 .030999899 .127 .027999878 C .113000009 .02399993 .095 .028999806 .082 .034999849 C .073 .038999797 .064 .04399991 .057000005 .05099988 Z "/>
</symbol>
<use xlink:href="#font_3_1" transform="matrix(9.9626,0,0,-9.9626,243.27828,172.0667)"/>
<symbol id="font_4_2">
<path d="M .201 .116000007 C .19100002 .082 .15800002 .028 .107 .028 C .10400001 .028 .07400001 .028 .053000004 .042000005 C .094000007 .055000005 .09700001 .091 .09700001 .097 C .09700001 .119 .080000009 .134 .057000005 .134 C .029000007 .134 0 .11 0 .073 C 0 .023000002 .056 0 .10500001 0 C .15100003 0 .192 .029000003 .21700001 .071 C .241 .018000002 .296 0 .336 0 C .451 0 .512 .125 .512 .15300001 C .512 .16600001 .49900005 .16600001 .49600003 .16600001 C .48200003 .16600001 .48100005 .16100002 .47700004 .14900002 C .456 .08 .39600004 .028 .34 .028 C .3 .028 .279 .055000005 .279 .093 C .279 .119 .303 .21000001 .331 .321 C .351 .398 .39600004 .423 .42900003 .423 C .43100003 .423 .46200005 .423 .483 .409 C .451 .4 .439 .372 .439 .354 C .439 .33200003 .456 .317 .479 .317 C .50200006 .317 .535 .336 .535 .37800003 C .535 .43400003 .47100006 .451 .43100003 .451 C .381 .451 .34100003 .418 .319 .38 C .301 .421 .255 .451 .199 .451 C .087000008 .451 .023000002 .328 .023000002 .298 C .023000002 .285 .037 .285 .040000008 .285 C .053000004 .285 .054000006 .289 .059000009 .30200003 C .084 .38 .14700002 .423 .19600001 .423 C .229 .423 .256 .405 .256 .357 C .256 .337 .24400002 .287 .23500002 .25300003 L .201 .116000007 Z "/>
</symbol>
<symbol id="font_4_1">
<path d="M .361 .39200003 C .34000004 .425 .306 .451 .25800003 .451 C .13000001 .451 0 .31 0 .16600001 C 0 .069000009 .065 0 .15100001 0 C .205 0 .25300003 .031000004 .29299999 .07 C .31200005 .010000001 .37 0 .39600004 0 C .43200005 0 .45700003 .022 .47500003 .053000004 C .49700005 .092 .51000007 .14900002 .51000007 .15300001 C .51000007 .16600001 .49700005 .16600001 .49400003 .16600001 C .48000003 .16600001 .47900004 .16200002 .47200007 .135 C .46000005 .087000008 .44100005 .028 .399 .028 C .37300004 .028 .366 .050000006 .366 .077 C .366 .094000007 .374 .13000001 .38100005 .15600002 C .388 .18300002 .398 .22400002 .403 .24600002 L .42300005 .322 C .42900003 .34800003 .44100005 .395 .44100005 .4 C .44100005 .42200003 .42300005 .432 .407 .432 C .39000006 .432 .36700005 .42000003 .361 .39200003 M .297 .135 C .29000003 .107 .268 .087000008 .246 .068 C .237 .060000004 .19700001 .028 .154 .028 C .117 .028 .081 .054000006 .081 .125 C .081 .17800002 .11 .28800003 .133 .328 C .179 .40800003 .23 .423 .25800003 .423 C .328 .423 .347 .347 .347 .336 C .347 .33200003 .34500004 .32500003 .34400005 .322 L .297 .135 Z "/>
</symbol>
<use xlink:href="#font_4_2" transform="matrix(6.9738,0,0,-6.9738,253.11675,152.41173)"/>
<use xlink:href="#font_4_1" transform="matrix(6.9738,0,0,-6.9738,248.7794,172.58673)"/>
<symbol id="font_1_4">
<path d="M .314 .605 L .4 .605 C .42000003 .605 .43 .605 .43 .625 C .43 .63600006 .42000003 .63600006 .40300004 .63600006 L .32000003 .63600006 L .34100003 .75 C .34500004 .771 .35900004 .842 .365 .8540001 C .374 .873 .39100004 .888 .41200004 .888 C .416 .888 .44200004 .888 .461 .87 C .41700004 .86600008 .407 .8310001 .407 .816 C .407 .793 .425 .781 .444 .781 C .47 .781 .49900005 .8030001 .49900005 .8410001 C .49900005 .8870001 .45300005 .9100001 .41200004 .9100001 C .37800003 .9100001 .31500004 .8920001 .28500004 .793 C .279 .7720001 .27600003 .7620001 .252 .63600006 L .18300002 .63600006 C .164 .63600006 .15300001 .63600006 .15300001 .61700007 C .15300001 .605 .162 .605 .18100001 .605 L .24700001 .605 L .172 .21000001 C .15400002 .113000009 .13700001 .022 .08500001 .022 C .081 .022 .056 .022 .037 .040000008 C .083000008 .043000014 .09200001 .07900001 .09200001 .094000007 C .09200001 .117000009 .074 .12900001 .055 .12900001 C .029 .12900001 0 .10700001 0 .069000009 C 0 .024000004 .044 0 .08500001 0 C .14 0 .18 .059 .19800002 .09700001 C .23000002 .16000001 .25300003 .28100003 .254 .28800003 L .314 .605 Z "/>
</symbol>
<use xlink:href="#font_1_4" transform="matrix(9.9626,0,0,-9.9626,259.98603,165.48233)"/>
<use xlink:href="#font_2_1" transform="matrix(9.9626,0,0,-9.9626,266.39433,165.93065)"/>
<symbol id="font_1_5">
<path d="M .18300002 .411 L .277 .411 C .29700003 .411 .307 .411 .307 .43100003 C .307 .44200004 .29700003 .44200004 .279 .44200004 L .19100002 .44200004 C .227 .584 .23200003 .60400006 .23200003 .61 C .23200003 .62700006 .22000002 .637 .20300001 .637 C .2 .637 .172 .636 .163 .601 L .124 .44200004 L .030000002 .44200004 C .009999998 .44200004 0 .44200004 0 .42300005 C 0 .411 .007999999 .411 .028 .411 L .11600001 .411 C .044 .127 .04 .11000001 .04 .092 C .04 .038000004 .078 0 .132 0 C .234 0 .291 .14600002 .291 .15400002 C .291 .16400002 .28300003 .16400002 .279 .16400002 C .27 .16400002 .26900003 .16100002 .264 .15000002 C .22100002 .046 .16800002 .022000002 .134 .022000002 C .113000009 .022000002 .103 .035 .103 .068 C .103 .092 .105000007 .09900001 .109 .116000007 L .18300002 .411 Z "/>
</symbol>
<use xlink:href="#font_1_5" transform="matrix(9.9626,0,0,-9.9626,269.51216,163.54959)"/>
<use xlink:href="#font_2_2" transform="matrix(9.9626,0,0,-9.9626,273.44789,165.93065)"/>
<symbol id="font_1_3">
<path d="M .47600005 .694 C .47600005 .695 .47600005 .705 .46300004 .705 C .44800005 .705 .35300002 .69600006 .33600004 .694 C .32800005 .693 .32200004 .688 .32200004 .675 C .32200004 .663 .33100004 .663 .34600003 .663 C .39400003 .663 .39600004 .656 .39600004 .646 L .39300005 .626 L .33300004 .38900004 C .31500004 .42600004 .286 .45300005 .24100001 .45300005 C .124 .45300005 0 .30600003 0 .16000001 C 0 .06600001 .055000005 0 .133 0 C .153 0 .20300001 .0040000008 .263 .075 C .27100004 .033000005 .30600003 0 .35400004 0 C .38900004 0 .41200004 .023000002 .42800004 .055000005 C .44500003 .091000009 .45800004 .15200001 .45800004 .15400002 C .45800004 .16400002 .44900004 .16400002 .44600005 .16400002 C .43600003 .16400002 .43500004 .16000001 .43200005 .14600002 C .41500003 .081 .397 .022000002 .35600005 .022000002 C .32900004 .022000002 .32600004 .048 .32600004 .068 C .32600004 .092 .32800005 .09900001 .33200003 .116000007 L .47600005 .694 M .26800005 .13000001 C .263 .112 .263 .11000001 .24800001 .093 C .20400001 .038000004 .163 .022000002 .135 .022000002 C .08499999 .022000002 .07100001 .077 .07100001 .116000007 C .07100001 .16600001 .103 .28900004 .126 .335 C .157 .39400003 .202 .43100003 .242 .43100003 C .307 .43100003 .32100005 .34900005 .32100005 .34300003 C .32100005 .337 .31900005 .33100004 .31800003 .32600004 L .26800005 .13000001 Z "/>
</symbol>
<use xlink:href="#font_1_3" transform="matrix(9.9626,0,0,-9.9626,278.8135,163.54959)"/>
<use xlink:href="#font_1_5" transform="matrix(9.9626,0,0,-9.9626,283.83467,163.54959)"/>
<use xlink:href="#font_1_4" transform="matrix(9.9626,0,0,-9.9626,245.30402,110.99933)" fill="#000080"/>
</g>
<path transform="matrix(1,0,0,-1,28.359,184.269)" stroke-width="1" stroke-linecap="butt" stroke-miterlimit="10" stroke-linejoin="miter" fill="none" stroke="#808080" d="M 64.52783 -2.126 L 64.52783 2.126 M 322.6392 -2.126 L 322.6392 2.126 "/>
<path transform="matrix(1,0,0,-1,28.359,184.269)" stroke-width="1" stroke-linecap="butt" stroke-miterlimit="10" stroke-linejoin="miter" fill="none" stroke="#808080" d="M -2.126 15.79414 L 2.126 15.79414 M -2.126 130.63243 L 2.126 130.63243 "/>
<path transform="matrix(1,0,0,-1,28.359,184.269)" stroke-width="1" stroke-linecap="butt" stroke-miterlimit="10" stroke-linejoin="miter" fill="none" stroke="#000000" d="M 0 0 L 385.1745 0 "/>
<path transform="matrix(1,0,0,-1,413.5335,184.269)" d="M 1.99252 0 L -1.19551 1.59401 L 0 0 L -1.19551 -1.59401 "/>
<path transform="matrix(1,0,0,-1,28.359,184.269)" stroke-width="1" stroke-linecap="butt" stroke-miterlimit="10" stroke-linejoin="miter" fill="none" stroke="#000000" d="M 0 0 L 0 169.17566 "/>
<path transform="matrix(0,-1,-1,-0,28.359,15.093338)" d="M 1.99252 0 L -1.19551 1.59401 L 0 0 L -1.19551 -1.59401 "/>
<symbol id="font_1_2">
<path d="M .33300004 .38900004 C .31500004 .42600004 .286 .45300005 .24100001 .45300005 C .124 .45300005 0 .30600003 0 .16000001 C 0 .06600001 .055000005 0 .133 0 C .153 0 .20300001 .0040000008 .263 .075 C .27100004 .033000005 .30600003 0 .35400004 0 C .38900004 0 .41200004 .023000002 .42800004 .055000005 C .44500003 .091000009 .45800004 .15200001 .45800004 .15400002 C .45800004 .16400002 .44900004 .16400002 .44600005 .16400002 C .43600003 .16400002 .43500004 .16000001 .43200005 .14600002 C .41500003 .081 .397 .022000002 .35600005 .022000002 C .32900004 .022000002 .32600004 .048 .32600004 .068 C .32600004 .09 .32800005 .098000008 .33900003 .14200002 C .35000003 .18400002 .35200004 .19400002 .36100004 .23200003 L .397 .37200005 C .40400005 .40000005 .40400005 .40200005 .40400005 .40600003 C .40400005 .42300005 .39200003 .43300004 .37500004 .43300004 C .35100005 .43300004 .33600004 .411 .33300004 .38900004 M .26800005 .13000001 C .263 .112 .263 .11000001 .24800001 .093 C .20400001 .038000004 .163 .022000002 .135 .022000002 C .08499999 .022000002 .07100001 .077 .07100001 .116000007 C .07100001 .16600001 .103 .28900004 .126 .335 C .157 .39400003 .202 .43100003 .242 .43100003 C .307 .43100003 .32100005 .34900005 .32100005 .34300003 C .32100005 .337 .31900005 .33100004 .31800003 .32600004 L .26800005 .13000001 Z "/>
</symbol>
<use xlink:href="#font_1_2" transform="matrix(9.9626,0,0,-9.9626,90.651508,194.31359)"/>
<use xlink:href="#font_1_6" transform="matrix(9.9626,0,0,-9.9626,348.4359,194.31359)"/>
<use xlink:href="#font_1_4" transform="matrix(9.9626,0,0,-9.9626,4.276017,173.00833)"/>
<use xlink:href="#font_2_1" transform="matrix(9.9626,0,0,-9.9626,10.684297,173.45665)"/>
<use xlink:href="#font_1_2" transform="matrix(9.9626,0,0,-9.9626,13.971503,171.07559)"/>
<use xlink:href="#font_2_2" transform="matrix(9.9626,0,0,-9.9626,19.406868,173.45665)"/>
<use xlink:href="#font_1_4" transform="matrix(9.9626,0,0,-9.9626,3.849017,58.17133)"/>
<use xlink:href="#font_2_1" transform="matrix(9.9626,0,0,-9.9626,10.257297,58.619649)"/>
<use xlink:href="#font_1_6" transform="matrix(9.9626,0,0,-9.9626,13.433915,56.238588)"/>
<use xlink:href="#font_2_2" transform="matrix(9.9626,0,0,-9.9626,19.406868,58.619649)"/>
<path transform="matrix(1,0,0,-1,28.359,184.269)" d="M 66.52039 15.79414 C 66.52039 16.89462 65.6283 17.7867 64.52783 17.7867 C 63.42735 17.7867 62.53528 16.89462 62.53528 15.79414 C 62.53528 14.69368 63.42735 13.80159 64.52783 13.80159 C 65.6283 13.80159 66.52039 14.69368 66.52039 15.79414 Z M 64.52783 15.79414 " fill="#000080"/>
<path transform="matrix(1,0,0,-1,28.359,184.269)" stroke-width="1" stroke-linecap="butt" stroke-miterlimit="10" stroke-linejoin="miter" fill="none" stroke="#000080" d="M 66.52039 15.79414 C 66.52039 16.89462 65.6283 17.7867 64.52783 17.7867 C 63.42735 17.7867 62.53528 16.89462 62.53528 15.79414 C 62.53528 14.69368 63.42735 13.80159 64.52783 13.80159 C 65.6283 13.80159 66.52039 14.69368 66.52039 15.79414 Z M 64.52783 15.79414 "/>
<path transform="matrix(1,0,0,-1,28.359,184.269)" d="M 324.63175 130.63243 C 324.63175 131.73291 323.73966 132.62499 322.6392 132.62499 C 321.5387 132.62499 320.6466 131.73291 320.6466 130.63243 C 320.6466 129.53197 321.5387 128.63988 322.6392 128.63988 C 323.73966 128.63988 324.63175 129.53197 324.63175 130.63243 Z M 322.6392 130.63243 " fill="#000080"/>
<path transform="matrix(1,0,0,-1,28.359,184.269)" stroke-width="1" stroke-linecap="butt" stroke-miterlimit="10" stroke-linejoin="miter" fill="none" stroke="#000080" d="M 324.63175 130.63243 C 324.63175 131.73291 323.73966 132.62499 322.6392 132.62499 C 321.5387 132.62499 320.6466 131.73291 320.6466 130.63243 C 320.6466 129.53197 321.5387 128.63988 322.6392 128.63988 C 323.73966 128.63988 324.63175 129.53197 324.63175 130.63243 Z M 322.6392 130.63243 "/>
<use xlink:href="#font_1_5" transform="matrix(9.9626,0,0,-9.9626,419.33815,187.44258)"/>
<symbol id="font_1_7">
<path d="M .45700003 .586 C .461 .6 .461 .602 .461 .609 C .461 .62700006 .447 .63600006 .432 .63600006 C .42200003 .63600006 .40600003 .63 .397 .615 C .395 .61 .387 .579 .38300003 .561 C .37600003 .535 .36900003 .508 .363 .48100005 L .318 .301 C .314 .286 .271 .21600002 .20500002 .21600002 C .15400002 .21600002 .143 .26000003 .143 .29700003 C .143 .34300003 .16000001 .40500004 .194 .49300004 C .21000001 .53400006 .21400002 .545 .21400002 .56500008 C .21400002 .61 .18200001 .6470001 .13200002 .6470001 C .037 .6470001 0 .50200006 0 .49300004 C 0 .48300005 .01 .48300005 .012 .48300005 C .022000002 .48300005 .023 .485 .028000003 .50100007 C .055000009 .595 .095000009 .625 .12900001 .625 C .13700001 .625 .15400002 .625 .15400002 .59300008 C .15400002 .568 .14400001 .54200008 .13700001 .523 C .097 .41700004 .079 .36 .079 .31300003 C .079 .224 .142 .194 .201 .194 C .24000003 .194 .274 .21100001 .30200003 .23900002 C .289 .187 .277 .13800001 .237 .08500001 C .21100001 .051 .17300001 .022 .127 .022 C .113000009 .022 .068 .025000006 .051000008 .06400001 C .067 .06400001 .080000009 .06400001 .094000007 .076000008 C .104 .08500001 .11400001 .098000008 .11400001 .117000009 C .11400001 .148 .087000008 .15200001 .07700001 .15200001 C .054000006 .15200001 .021 .136 .021 .087000008 C .021 .037 .065000008 0 .127 0 C .23 0 .333 .091000009 .361 .20400001 L .45700003 .586 Z "/>
</symbol>
<use xlink:href="#font_1_7" transform="matrix(9.9626,0,0,-9.9626,26.026915,9.652334)"/>
</svg>
